<?xml version="1.0" standalone="no"?><!DOCTYPE svg PUBLIC "-//W3C//DTD SVG 1.1//EN" "http://www.w3.org/Graphics/SVG/1.1/DTD/svg11.dtd"><svg t="1621496151031" class="icon" viewBox="0 0 1024 1024" version="1.1" xmlns="http://www.w3.org/2000/svg" p-id="4553" xmlns:xlink="http://www.w3.org/1999/xlink" width="300" height="300"><defs><style type="text/css"></style></defs><path d="M541.257143 487.862857L237.714286 83.748571c-1.462857-1.828571-3.291429-3.657143-5.485715-5.485714a26.770286 26.770286 0 0 0-37.302857 5.485714l-4.754285 6.582858a36.205714 36.205714 0 0 0 1e-8 43.885714L473.965714 512 190.17142901 889.782857a36.205714 36.205714 0 0 0-1e-8 43.885714l4.754285 6.582858a26.441143 26.441143 0 0 0 42.788572 0l303.542857-404.114286c5.485714-6.94857099 7.68-15.725714 7.31428599-24.137143 0.36571399-8.411429-1.828571-16.822857-7.31428599-24.137143z" p-id="4554"></path><path d="M906.971429 487.86285701L603.428571 83.748571a26.441143 26.441143 0 0 0-42.788571 0l-4.754286 6.582858a36.205714 36.205714 0 0 0 0 43.885714L839.68 512 555.885714 889.782857a36.205714 36.205714 0 0 0 0 43.885714l4.754286 6.582858a26.441143 26.441143 0 0 0 42.788571 0l303.542858-404.11428601c5.485714-6.94857099 7.68-15.725714 7.31428499-24.13714299 0.36571399-8.411429-1.828571-16.822857-7.31428499-24.13714299z" p-id="4555"></path></svg>